<?xml version="1.0" encoding="utf-8"?>
<!-- Generator: Adobe Illustrator 25.0.1, SVG Export Plug-In . SVG Version: 6.00 Build 0)  -->
<svg version="1.1" id="Layer_1" xmlns="http://www.w3.org/2000/svg" xmlns:xlink="http://www.w3.org/1999/xlink" x="0px" y="0px"
	 viewBox="0 0 612 792" style="enable-background:new 0 0 612 792;" xml:space="preserve">
<style type="text/css">
	.st0{fill:none;stroke:#4A653F;stroke-width:5;stroke-miterlimit:10;}
</style>
<g>
	<path class="st0" d="M264.8,442.63c0,0,6.92-130.57-13.38-144.87l-11.07-6.08l-2.09-1.15l-2-1.1l-2.32-1.27l-6.04-3.32
		c0,0-12-15.23-37.83,1.38c0,0-24.91,22.61-26.76,46.14c0,0,11.53-13.84,26.3-11.07l38.76-31.37c0,0,8.77-1.38,10.15,3.69
		l-16.61,16.15c0,0,13.38-6,13.84-3.69c0.46,2.31,15.69-2.31,15.69-4.15c0-1.85,14.3-8.3,14.3-8.3s-10.15-14.3-23.53-5.08
		l-3.96,3.23"/>
	<path class="st0" d="M166.52,324.98c0,0,8.77-20.3,35.53-25.84c0,0,3.69-6.92-12.46-8.77c-16.15-1.85,36.91-2.31,29.99-7.84
		l-0.88-0.02l-0.74-0.08"/>
	<path class="st0" d="M228.81,331.9c0,0-7.84-12.92-20.3,4.15c-9.75,13.36-5.94,24.17-3.82,28.25c0.59,1.13,1.05,1.74,1.05,1.74
		l36.91-20.76C242.65,345.28,265.26,316.67,228.81,331.9z"/>
	<path class="st0" d="M207.58,360.04"/>
	<path class="st0" d="M265.19,386.82L265.19,386.82c0,0,0,0-4.55-3.71c0,0-33.68-23.53-43.37-17.99
		c-9.69,5.54-23.07,13.38-25.84,37.83c0,0,11.48-10.7,41.06-29.53l3.37-2.28l1.73-0.96"/>
	<path class="st0" d="M264.8,383.11c0,0,16.75-9.02,23.73-5.92c0.25,0.11,0.49,0.24,0.72,0.39c6.46,4.15-12.92,28.14,33.22,24.91
		c0,0-15.23-56.75-31.37-28.61l-1.63,2.12"/>
	<path class="st0" d="M267.1,288.53c-16.15-10.15-12-19.38-12-19.38c14.3,4.61,14.3,15.69,14.3,15.69l-3.09,37.5l-0.14,1.71
		l-2.93,11.83"/>
	<path class="st0" d="M306.32,232.24c0,0-61.83,34.14-39.22,43.83c0,0,2.77,7.84,5.54,7.84c2.69,0,32.03,4.64,33.61-42.55
		c0.04-1.31,0.07-2.66,0.07-4.05l-1.6-2.52"/>
	<path class="st0" d="M268.49,304.68c-0.34,0.42-0.72,1-0.53,1.35c0.28,0.51,1.61,0.33,2.62,0.1c2.2-0.5,6.11-1.88,12.88-4.91
		c0.81-0.36,1.67-0.75,2.56-1.16c0,0,3.69-10.61,18.46-4.61s14.76,31.37,7.84,58.13c-5.27-0.9-15.34-3.39-24.86-11.3
		C270.86,328.47,268.83,308.87,268.49,304.68z"/>
	<path class="st0" d="M285.1,304.21c0.54,0.06,1.11,0.29,1.7,0.68c7.16,4.68,17.7,31.64,20.89,40.13c0.17,0.45,0.32,0.85,0.44,1.19
		c0.33,0.88,0.5,1.37,0.5,1.37l1.99,3.56"/>
	<path class="st0" d="M273.1,321.29c0,0,11.07-14.3,35.53-18.46"/>
	<path class="st0" d="M294.79,302.83"/>
	<path class="st0" d="M315.55,303.75c0,0,7.84-0.92,10.15,8.77c0,0,3.23,8.3,48.91,17.53l13.38,6.92c0,0,0.46-18.46-29.07-44.75
		c0,0-22.15-13.84-46.14,8.3"/>
</g>
<path class="st0" d="M202.89,367.82"/>
<path class="st0" d="M206.31,364.06c0,0,17.79-32.38,22.5-32.16"/>
<line class="st0" x1="281.49" y1="302.12" x2="287.94" y2="305.96"/>
<path class="st0" d="M274.64,339.99"/>
<path class="st0" d="M266.43,320.37"/>
</svg>
